<svg width="54" height="54" viewBox="0 0 54 54" fill="none" xmlns="http://www.w3.org/2000/svg">
<g clip-path="url(#clip0_2_135)">
<path d="M0 25.7344C0.239503 25.4316 0.184639 25.0486 0.273265 24.7057C0.787089 22.7064 1.82001 21.0035 3.19267 19.4873C3.38891 19.27 3.5936 19.06 3.83416 18.8026C3.61681 18.7804 3.46488 18.7794 3.31928 18.7477C2.8255 18.6422 2.44778 18.1643 2.46572 17.6831C2.48577 17.1683 2.90463 16.6882 3.43323 16.6766C4.59276 16.6513 5.75335 16.6481 6.91182 16.6787C7.47207 16.6935 7.85295 17.1398 7.873 17.8003C7.9036 18.8363 7.90676 19.8745 7.87194 20.9096C7.84873 21.6091 7.39399 22.0427 6.79893 22.0406C6.20281 22.0385 5.785 21.6038 5.72802 20.9022C5.70587 20.6289 5.72486 20.3514 5.72486 19.9611C3.8637 21.6988 2.51003 23.5874 2.19878 26.0858C1.83267 29.0242 3.09349 31.3433 5.03378 33.3616C7.00889 35.4159 9.43768 36.8075 12.0479 37.9006C12.164 37.9491 12.2906 38.0335 12.393 37.9544C12.547 37.8373 12.4542 37.6579 12.4183 37.5155C11.4402 33.5906 11.0773 29.5992 11.2007 25.5656C11.3643 20.2459 12.3297 15.0866 14.5706 10.228C15.9939 7.14185 17.8256 4.32901 20.5983 2.25261C22.1493 1.09097 23.8574 0.278558 25.8178 0.0886441C25.9898 -0.00631299 26.1997 0.123462 26.3675 -0.0010376H28.0546C28.4418 0.207868 28.8838 0.16672 29.2964 0.273283C31.2588 0.780776 32.9417 1.78099 34.4367 3.12411C34.6572 3.32246 34.8735 3.52504 35.1014 3.73394C35.2386 3.59151 35.1953 3.42691 35.2249 3.28448C35.3335 2.76538 35.6838 2.51111 36.1734 2.44147C36.6165 2.37817 37.085 2.69891 37.2295 3.14626C37.2875 3.32668 37.3192 3.52398 37.3213 3.71284C37.3308 4.66241 37.334 5.61093 37.3234 6.5605C37.3139 7.41089 36.9119 7.81288 36.0615 7.82132C35.0951 7.83187 34.1276 7.83187 33.1611 7.82132C32.3804 7.81288 31.9277 7.413 31.9299 6.76202C31.933 6.11631 32.4015 5.71221 33.1685 5.6985C33.4133 5.69428 33.6581 5.6985 33.9862 5.6985C33.3669 4.9515 32.6832 4.37226 31.9605 3.83523C29.2447 1.81792 25.746 1.5858 23.0197 3.21062C21.0763 4.36804 19.5717 5.96121 18.3383 7.82976C16.0731 11.2598 14.7838 15.0676 14.0304 19.0758C13.3394 22.7539 13.1431 26.4667 13.4111 30.1953C13.6126 32.9966 14.0642 35.7609 14.8576 38.4629C14.9652 38.8301 15.1108 39.0284 15.5086 39.1413C20.2522 40.4897 25.0877 40.9202 29.9927 40.5921C33.8564 40.3336 37.6315 39.6077 41.2494 38.1865C43.4766 37.3118 45.591 36.223 47.4648 34.7163C49.3714 33.1833 50.9361 31.395 51.6039 28.9693C51.8381 28.1189 51.9605 27.2538 51.8318 26.3675C51.8065 26.1945 51.8002 26.0162 51.8128 25.8421C51.8519 25.2903 52.2401 24.8735 52.7613 24.8049C53.2224 24.7437 53.7162 25.0845 53.8839 25.5772C53.9145 25.668 53.8576 25.7978 54.0011 25.8378V27.6304C53.8755 27.7982 54.0063 28.0071 53.9114 28.1801C53.6814 30.4243 52.6801 32.3234 51.2557 34.0179C49.1572 36.5153 46.4636 38.2013 43.5336 39.5359C39.8356 41.2209 35.9265 42.1367 31.9024 42.5693C28.5568 42.9291 25.2069 42.9122 21.8581 42.5281C20.0465 42.3203 18.2539 42.0207 16.4846 41.5807C16.3189 41.5395 16.1417 41.5438 15.9116 41.5216C17.2875 44.8134 18.9988 47.7993 21.8233 49.997C25.113 52.5567 29.0854 52.486 32.3645 49.8483C32.7064 49.5729 33.0377 49.2437 33.5135 49.2796C33.9641 49.3134 34.3207 49.5634 34.4557 50.0034C34.596 50.4571 34.4705 50.8707 34.0938 51.1872C32.9997 52.1072 31.798 52.8458 30.4612 53.3649C29.6804 53.6687 28.8564 53.7879 28.0546 53.9979H26.3675C26.2008 53.8871 26.0151 53.9684 25.8399 53.943C24.1845 53.9821 22.7686 53.2794 21.4097 52.4585C19.2098 51.1302 17.6124 49.2036 16.2303 47.0787C15.0264 45.2291 14.099 43.2445 13.3594 41.1703C13.2623 40.898 13.103 40.7366 12.8308 40.6396C9.74366 39.5402 6.88439 38.0293 4.38807 35.8833C2.37182 34.1498 0.880991 32.0628 0.177253 29.4652C0.0622497 29.0411 0.0485336 28.6 0.0548641 28.1611C0.0295422 27.9849 0.110783 27.7982 0 27.6304V25.7323L0 25.7344Z" fill="white"/>
<path d="M26.3675 0C26.2039 0.146656 26.0119 0.122389 25.8178 0.0896817C25.8262 0.0601395 25.8336 0.0295422 25.8399 0H26.3675Z" fill="white"/>
<path d="M0.0896817 28.1823L0.0411481 28.1854L0 28.1601V27.6326C0.146656 27.7961 0.123444 27.9881 0.0896817 28.1823Z" fill="white"/>
<path d="M53.9093 28.1823C53.8766 27.9892 53.8523 27.7972 53.9989 27.6326V28.1601L53.9578 28.1854L53.9093 28.1823Z" fill="white"/>
<path d="M25.8399 54C25.8336 53.9694 25.8262 53.9398 25.8178 53.9103C26.0109 53.8776 26.2029 53.8533 26.3675 54H25.8399Z" fill="white"/>
<path d="M24.7585 23.0651C24.7163 24.2742 24.864 25.7724 24.7005 27.258C24.5369 28.7404 23.5051 29.6657 22.029 29.7205C21.1343 29.7543 20.2354 29.7543 19.3407 29.7205C17.7918 29.6625 16.6987 28.5631 16.6375 27.0522C16.6091 26.3559 16.9752 25.879 17.5797 25.8252C18.2275 25.7671 18.6971 26.1501 18.7498 26.8792C18.7888 27.411 19.0547 27.5829 19.5263 27.5829C20.2997 27.5829 21.0731 27.5924 21.8465 27.5798C22.4352 27.5692 22.5903 27.4057 22.5945 26.8159C22.6019 25.9549 22.5829 25.0929 22.604 24.232C22.6114 23.9208 22.547 23.8026 22.2062 23.8163C21.4687 23.8448 20.7302 23.8406 19.9927 23.8184C19.424 23.8015 18.9956 23.4597 18.8944 23.0039C18.7846 22.5101 19.0051 22.0322 19.4483 21.8085C19.692 21.6861 19.9568 21.685 20.2185 21.684C20.8863 21.6798 21.5542 21.6682 22.2221 21.6893C22.5291 21.6988 22.6093 21.5922 22.604 21.2978C22.5871 20.4021 22.5945 19.5052 22.5987 18.6084C22.6008 18.1252 22.3708 17.9068 21.8866 17.9152C21.1491 17.9269 20.4094 17.9416 19.6719 17.911C19.1054 17.8868 18.7994 18.0577 18.7203 18.6728C18.6411 19.2868 18.0967 19.6593 17.5671 19.5749C16.9583 19.4778 16.6249 19.041 16.6449 18.3774C16.6555 18.0408 16.7135 17.7148 16.8591 17.4109C17.3096 16.4687 18.0324 15.8768 19.0927 15.822C20.0739 15.7713 21.0615 15.746 22.0417 15.7966C23.7298 15.8832 24.7384 16.9952 24.7553 18.7224C24.768 20.076 24.7574 21.4287 24.7574 23.0661L24.7585 23.0651Z" fill="white"/>
<path d="M51.7084 21.4107C52.3077 21.4139 52.7466 21.876 52.7339 22.4901C52.7223 23.0662 52.2707 23.5146 51.701 23.5177C51.1186 23.5198 50.6385 23.044 50.6322 22.4574C50.6259 21.8813 51.1133 21.4065 51.7073 21.4107H51.7084Z" fill="white"/>
<path d="M36.2399 48.3057C35.6385 48.311 35.1774 47.8499 35.1848 47.2496C35.1922 46.6492 35.6532 46.1945 36.2494 46.1976C36.8159 46.2008 37.2812 46.6629 37.2833 47.2253C37.2865 47.8256 36.8275 48.3004 36.2388 48.3046L36.2399 48.3057Z" fill="white"/>
<path d="M44.1582 18.6031C44.1382 16.953 43.0852 15.8705 41.4403 15.7945C40.3019 15.7418 39.1582 15.7259 38.0187 15.8177C36.7853 15.9169 35.7788 16.8675 35.6427 18.0978C35.4707 19.6551 35.6247 21.2208 35.573 22.4901C35.573 24.117 35.5593 25.4517 35.5762 26.7863C35.5984 28.6064 36.7368 29.7195 38.5589 29.7279C39.4547 29.7321 40.3504 29.7353 41.2462 29.7279C42.9713 29.7121 44.1392 28.6042 44.1593 26.876C44.1909 24.1191 44.1909 21.3611 44.1593 18.6031H44.1582ZM42.0048 26.8212C42.0037 27.4088 41.8423 27.5713 41.2494 27.5787C40.3177 27.5914 39.3861 27.5924 38.4555 27.5776C37.8974 27.5682 37.7402 27.3983 37.737 26.8401C37.7307 25.4875 37.7349 24.1339 37.7349 22.7813C37.7349 21.4286 37.7317 20.075 37.736 18.7224C37.7381 18.0714 37.89 17.9216 38.542 17.9195C39.4378 17.9163 40.3346 17.9152 41.2304 17.9195C41.8423 17.9226 42.0048 18.0798 42.0059 18.7034C42.0101 21.4097 42.0111 24.1159 42.0059 26.8212H42.0048Z" fill="white"/>
<path d="M34.423 23.8332C34.2595 22.1872 33.1907 21.2904 31.5215 21.264C30.4844 21.2482 29.4473 21.2503 28.4112 21.2672C28.1105 21.2725 28.0166 21.1817 28.025 20.881C28.0451 20.1435 28.0261 19.405 28.0335 18.6664C28.0387 18.0861 28.2054 17.9226 28.7878 17.9194C29.7015 17.9142 30.6163 17.9321 31.5289 17.9131C32.2485 17.8983 32.7022 17.4584 32.699 16.8338C32.6958 16.2197 32.277 15.7977 31.5627 15.7861C30.4918 15.7681 29.4177 15.7629 28.3489 15.823C27.0681 15.8958 26.0763 16.8506 25.936 18.1188C25.7671 19.6424 25.9212 21.1733 25.8695 22.4162C25.8695 24.0547 25.86 25.4073 25.8716 26.761C25.8874 28.4829 26.9341 29.6488 28.5684 29.7184C29.6213 29.7627 30.6775 29.7574 31.7315 29.7205C33.1749 29.6688 34.2088 28.7382 34.3987 27.3044C34.5517 26.1533 34.5359 24.9832 34.422 23.8342L34.423 23.8332ZM32.297 26.9446C32.297 27.3571 32.0702 27.5671 31.6819 27.5724C30.6659 27.5861 29.6488 27.5861 28.6327 27.5724C28.2012 27.5671 28.0229 27.3044 28.025 26.8834C28.0313 25.8315 28.0387 24.7806 28.0197 23.7287C28.0145 23.4238 28.1432 23.3921 28.3922 23.3985C28.9355 23.4122 29.4789 23.4027 30.0223 23.4027C30.5477 23.4027 31.0742 23.409 31.5996 23.4006C32.048 23.3942 32.296 23.5937 32.2981 24.0516C32.3023 25.0159 32.2981 25.9792 32.2981 26.9435L32.297 26.9446Z" fill="white"/>
<path d="M48.4323 14.0336C46.9078 14.0189 45.6058 15.2966 45.5868 16.8264C45.5678 18.3531 46.8518 19.634 48.4017 19.6351C49.9506 19.6351 51.2325 18.3595 51.2188 16.8317C51.2051 15.3219 49.9379 14.0495 48.4323 14.0347V14.0336ZM48.407 17.5017C47.9998 17.5017 47.7613 17.2622 47.755 16.8433C47.7487 16.4139 48.0124 16.1828 48.4039 16.1828C48.7911 16.1828 49.0496 16.4107 49.0612 16.8792C49.0401 17.2558 48.8153 17.5006 48.407 17.5017Z" fill="white"/>
</g>
<defs>
<clipPath id="clip0_2_135">
<rect width="54" height="54" fill="white"/>
</clipPath>
</defs>
</svg>
