<svg width="48" height="48" viewBox="0 0 48 48" fill="none" xmlns="http://www.w3.org/2000/svg">
<path d="M24 4C12.96 4 4 12.96 4 24C4 35.04 12.96 44 24 44C35.04 44 44 35.04 44 24C44 12.96 35.04 4 24 4ZM32.06 25.06L26.06 31.06C25.76 31.36 25.38 31.5 25 31.5C24.62 31.5 24.24 31.36 23.94 31.06C23.36 30.48 23.36 29.52 23.94 28.94L27.38 25.5H17C16.18 25.5 15.5 24.82 15.5 24C15.5 23.18 16.18 22.5 17 22.5H27.38L23.94 19.06C23.36 18.48 23.36 17.52 23.94 16.94C24.52 16.36 25.48 16.36 26.06 16.94L32.06 22.94C32.64 23.52 32.64 24.48 32.06 25.06Z" fill="white" fill-opacity="0.9"/>
</svg>
