<svg width="96" height="51" viewBox="0 0 96 51" fill="none" xmlns="http://www.w3.org/2000/svg">
<g clip-path="url(#clip0_1_18)">
<path d="M27.324 31.599C27.282 31.998 27.2505 32.3865 27.2295 32.7645C27.219 33.132 27.2138 33.4155 27.2138 33.615C27.2138 33.867 27.219 34.1032 27.2295 34.3237C27.24 34.5442 27.2505 34.7385 27.261 34.9065H26.8987C26.8253 34.1715 26.7255 33.594 26.5995 33.174C26.4735 32.7435 26.253 32.4337 25.938 32.2447C25.623 32.0557 25.1348 31.9612 24.4733 31.9612H23.6228V40.923C23.6228 41.343 23.6595 41.658 23.733 41.868C23.817 42.078 23.9745 42.2197 24.2055 42.2932C24.4365 42.3667 24.7725 42.414 25.2135 42.435V42.75C24.9405 42.729 24.594 42.7185 24.174 42.7185C23.754 42.708 23.3288 42.7027 22.8983 42.7027C22.4258 42.7027 21.9795 42.708 21.5595 42.7185C21.15 42.7185 20.8193 42.729 20.5673 42.75V42.435C21.0083 42.414 21.3443 42.3667 21.5753 42.2932C21.8063 42.2197 21.9585 42.078 22.032 41.868C22.116 41.658 22.158 41.343 22.158 40.923V31.9612H21.3075C20.6565 31.9612 20.1683 32.0557 19.8428 32.2447C19.5278 32.4337 19.3073 32.7435 19.1813 33.174C19.0553 33.594 18.9555 34.1715 18.882 34.9065H18.5197C18.5408 34.7385 18.5513 34.5442 18.5513 34.3237C18.5618 34.1032 18.567 33.867 18.567 33.615C18.567 33.4155 18.5565 33.132 18.5355 32.7645C18.525 32.3865 18.4988 31.998 18.4568 31.599C18.8978 31.6095 19.3755 31.62 19.89 31.6305C20.415 31.641 20.94 31.6462 21.465 31.6462C21.99 31.6462 22.4678 31.6462 22.8983 31.6462C23.3288 31.6462 23.8013 31.6462 24.3158 31.6462C24.8408 31.6462 25.3658 31.641 25.8908 31.6305C26.4158 31.62 26.8935 31.6095 27.324 31.599ZM28.4437 31.599C28.6642 31.6095 28.953 31.62 29.31 31.6305C29.667 31.641 30.0187 31.6462 30.3652 31.6462C30.8587 31.6462 31.3312 31.641 31.7827 31.6305C32.2342 31.62 32.5545 31.6147 32.7435 31.6147C33.594 31.6147 34.2975 31.7355 34.854 31.977C35.421 32.2185 35.841 32.5492 36.114 32.9692C36.3975 33.3787 36.5392 33.8407 36.5392 34.3552C36.5392 34.6702 36.4762 35.0062 36.3502 35.3632C36.2242 35.7202 36.0037 36.0562 35.6887 36.3712C35.3842 36.6862 34.9642 36.9487 34.4287 37.1587C33.8932 37.3582 33.216 37.458 32.397 37.458H30.885V37.143H32.2395C32.985 37.143 33.552 37.0275 33.9405 36.7965C34.3395 36.555 34.6072 36.24 34.7437 35.8515C34.8907 35.4525 34.9642 35.0115 34.9642 34.5285C34.9642 33.699 34.7647 33.0585 34.3657 32.607C33.9772 32.145 33.3052 31.914 32.3497 31.914C31.8667 31.914 31.5517 32.0032 31.4047 32.1817C31.2577 32.3602 31.1842 32.7225 31.1842 33.2685V41.0805C31.1842 41.4585 31.2157 41.742 31.2787 41.931C31.3417 42.12 31.4625 42.246 31.641 42.309C31.83 42.372 32.103 42.414 32.46 42.435V42.75C32.2185 42.729 31.914 42.7185 31.5465 42.7185C31.1895 42.708 30.8272 42.7027 30.4597 42.7027C30.0502 42.7027 29.667 42.708 29.31 42.7185C28.953 42.7185 28.6642 42.729 28.4437 42.75V42.435C28.8007 42.414 29.0685 42.372 29.247 42.309C29.436 42.246 29.562 42.12 29.625 41.931C29.688 41.742 29.7195 41.4585 29.7195 41.0805V33.2685C29.7195 32.88 29.688 32.5965 29.625 32.418C29.562 32.229 29.436 32.103 29.247 32.04C29.0685 31.9665 28.8007 31.9245 28.4437 31.914V31.599ZM30.948 37.1902C31.515 37.2112 31.9612 37.2375 32.2867 37.269C32.6122 37.29 32.8747 37.311 33.0742 37.332C33.2842 37.353 33.4837 37.3792 33.6727 37.4107C34.3762 37.5262 34.8802 37.7415 35.1847 38.0565C35.4997 38.361 35.7307 38.8387 35.8777 39.4897L36.2715 41.0962C36.3765 41.5582 36.4815 41.8942 36.5865 42.1042C36.702 42.3037 36.8752 42.3982 37.1062 42.3877C37.2847 42.3772 37.4317 42.3195 37.5472 42.2145C37.6732 42.1095 37.8045 41.9677 37.941 41.7892L38.1772 41.9625C37.9567 42.288 37.7257 42.54 37.4842 42.7185C37.2532 42.8865 36.9225 42.9705 36.492 42.9705C36.1035 42.9705 35.7622 42.855 35.4682 42.624C35.1742 42.393 34.9537 41.9415 34.8067 41.2695L34.4602 39.6945C34.3657 39.243 34.2555 38.8545 34.1295 38.529C34.014 38.193 33.846 37.9305 33.6255 37.7415C33.4155 37.5525 33.1005 37.458 32.6805 37.458H30.9795L30.948 37.1902ZM43.0824 31.5202L46.9254 41.427C47.0829 41.826 47.2614 42.0937 47.4609 42.2303C47.6604 42.3562 47.8441 42.4245 48.0121 42.435V42.75C47.8021 42.729 47.5449 42.7185 47.2404 42.7185C46.9359 42.708 46.6314 42.7027 46.3269 42.7027C45.9174 42.7027 45.5341 42.708 45.1771 42.7185C44.8201 42.7185 44.5314 42.729 44.3109 42.75V42.435C44.8464 42.414 45.1876 42.3247 45.3346 42.1672C45.4816 41.9992 45.4501 41.6475 45.2401 41.112L42.3106 33.2842L42.5626 33.0795L39.8221 40.1985C39.6541 40.6185 39.5544 40.9755 39.5229 41.2695C39.4914 41.553 39.5176 41.7787 39.6016 41.9467C39.6961 42.1147 39.8484 42.2355 40.0584 42.309C40.2789 42.3825 40.5519 42.4245 40.8774 42.435V42.75C40.5834 42.729 40.2736 42.7185 39.9481 42.7185C39.6331 42.708 39.3391 42.7027 39.0661 42.7027C38.8036 42.7027 38.5779 42.708 38.3889 42.7185C38.2104 42.7185 38.0424 42.729 37.8849 42.75V42.435C38.0949 42.3825 38.3101 42.2617 38.5306 42.0727C38.7511 41.8732 38.9506 41.5372 39.1291 41.0647L42.8304 31.5202C42.8724 31.5202 42.9144 31.5202 42.9564 31.5202C42.9984 31.5202 43.0404 31.5202 43.0824 31.5202ZM45.0039 38.214V38.529H40.3104L40.4679 38.214H45.0039ZM44.6259 28.1655C44.8359 28.029 45.0249 27.9817 45.1929 28.0237C45.3714 28.0552 45.5026 28.1392 45.5866 28.2757C45.6706 28.4122 45.6916 28.5645 45.6496 28.7325C45.6076 28.89 45.4764 29.0422 45.2559 29.1892C45.0354 29.3257 44.7781 29.4517 44.4841 29.5672C44.2006 29.6722 43.8646 29.8035 43.4761 29.961C43.0981 30.108 42.6361 30.318 42.0901 30.591L41.9799 30.3862C42.4629 30.0187 42.8566 29.6985 43.1611 29.4255C43.4761 29.142 43.7439 28.8952 43.9644 28.6852C44.1849 28.4752 44.4054 28.302 44.6259 28.1655ZM58.1607 31.599V31.914C57.8037 31.9245 57.5307 31.977 57.3417 32.0715C57.1632 32.166 57.0424 32.3182 56.9794 32.5282C56.9164 32.7382 56.8849 33.0375 56.8849 33.426V42.8288C56.8219 42.8288 56.7589 42.8288 56.6959 42.8288C56.6434 42.8288 56.5857 42.8288 56.5227 42.8288L49.9077 32.607V40.923C49.9077 41.301 49.9392 41.6002 50.0022 41.8207C50.0757 42.0307 50.2122 42.183 50.4117 42.2775C50.6217 42.3615 50.9314 42.414 51.3409 42.435V42.75C51.1519 42.729 50.9052 42.7185 50.6007 42.7185C50.2962 42.708 50.0074 42.7027 49.7344 42.7027C49.4719 42.7027 49.2042 42.708 48.9312 42.7185C48.6687 42.7185 48.4482 42.729 48.2697 42.75V42.435C48.6267 42.414 48.8944 42.3615 49.0729 42.2775C49.2619 42.183 49.3879 42.0307 49.4509 41.8207C49.5139 41.6002 49.5454 41.301 49.5454 40.923V33.2685C49.5454 32.88 49.5139 32.5965 49.4509 32.418C49.3879 32.229 49.2619 32.103 49.0729 32.04C48.8944 31.9665 48.6267 31.9245 48.2697 31.914V31.599C48.4482 31.6095 48.6687 31.62 48.9312 31.6305C49.2042 31.641 49.4719 31.6462 49.7344 31.6462C49.9654 31.6462 50.1859 31.641 50.3959 31.6305C50.6059 31.62 50.7949 31.6095 50.9629 31.599L56.5227 40.167V33.426C56.5227 33.0375 56.4859 32.7382 56.4124 32.5282C56.3494 32.3182 56.2129 32.166 56.0029 32.0715C55.8034 31.977 55.4989 31.9245 55.0894 31.914V31.599C55.2784 31.6095 55.5252 31.62 55.8297 31.6305C56.1447 31.641 56.4334 31.6462 56.6959 31.6462C56.9689 31.6462 57.2367 31.641 57.4992 31.6305C57.7722 31.62 57.9927 31.6095 58.1607 31.599ZM64.5428 31.3785C65.2253 31.3785 65.7766 31.4835 66.1966 31.6935C66.6166 31.893 67.0104 32.1292 67.3779 32.4022C67.5143 32.5072 67.6193 32.5597 67.6929 32.5597C67.8924 32.5597 68.0236 32.2395 68.0866 31.599H68.4488C68.4279 31.9875 68.4121 32.46 68.4016 33.0165C68.3911 33.573 68.3858 34.308 68.3858 35.2215H68.0236C67.9501 34.7805 67.8609 34.3552 67.7559 33.9457C67.6509 33.5362 67.4776 33.1845 67.2361 32.8905C66.9316 32.502 66.5326 32.2027 66.0391 31.9927C65.5456 31.7722 65.0363 31.662 64.5113 31.662C63.9863 31.662 63.5086 31.7932 63.0781 32.0557C62.6581 32.3077 62.2958 32.6752 61.9913 33.1582C61.6868 33.6412 61.4506 34.224 61.2826 34.9065C61.1251 35.5785 61.0463 36.3397 61.0463 37.1902C61.0463 39.0802 61.3508 40.4662 61.9598 41.3482C62.5688 42.2197 63.5138 42.6555 64.7948 42.6555C65.1729 42.6555 65.4984 42.603 65.7714 42.498C66.0549 42.3825 66.2754 42.2722 66.4328 42.1672C66.6324 42.0307 66.7584 41.9047 66.8109 41.7892C66.8634 41.6632 66.8896 41.5005 66.8896 41.301V39.789C66.8896 39.3585 66.8476 39.0382 66.7636 38.8282C66.6796 38.6182 66.5221 38.4765 66.2911 38.403C66.0706 38.3295 65.7398 38.2875 65.2988 38.277V37.962C65.4879 37.9725 65.7084 37.983 65.9603 37.9935C66.2123 37.9935 66.4748 37.9987 66.7479 38.0092C67.0314 38.0092 67.2886 38.0092 67.5196 38.0092C67.8661 38.0092 68.1759 38.004 68.4488 37.9935C68.7323 37.983 68.9686 37.9725 69.1576 37.962V38.277C68.9266 38.2875 68.7533 38.3242 68.6379 38.3872C68.5223 38.4502 68.4436 38.5762 68.4016 38.7652C68.3701 38.9542 68.3544 39.243 68.3544 39.6315V42.75H68.0394C68.0288 42.5715 67.9868 42.3772 67.9134 42.1672C67.8504 41.9572 67.7506 41.8522 67.6141 41.8522C67.5511 41.8522 67.4881 41.868 67.4251 41.8995C67.3621 41.931 67.2519 42.0045 67.0944 42.12C66.7478 42.3825 66.3803 42.5925 65.9918 42.75C65.6033 42.897 65.1519 42.9705 64.6374 42.9705C63.5558 42.9705 62.6266 42.75 61.8496 42.309C61.0831 41.8575 60.4951 41.2117 60.0856 40.3717C59.6761 39.5317 59.4713 38.529 59.4713 37.3635C59.4713 36.135 59.6918 35.0745 60.1328 34.182C60.5738 33.2895 61.1723 32.6017 61.9283 32.1187C62.6948 31.6252 63.5663 31.3785 64.5428 31.3785ZM78.2949 31.599V31.914C77.9379 31.9245 77.6649 31.9665 77.4759 32.04C77.2974 32.103 77.1767 32.229 77.1137 32.418C77.0507 32.5965 77.0192 32.88 77.0192 33.2685V41.0805C77.0192 41.4585 77.0507 41.742 77.1137 41.931C77.1767 42.12 77.2974 42.246 77.4759 42.309C77.6649 42.3615 77.9379 42.3877 78.2949 42.3877H79.4447C79.9382 42.3877 80.3372 42.3352 80.6417 42.2303C80.9567 42.1252 81.2034 41.9625 81.3819 41.742C81.5709 41.511 81.7127 41.2065 81.8072 40.8285C81.9017 40.4505 81.9752 39.9885 82.0277 39.4425H82.3899C82.3584 39.768 82.3427 40.1985 82.3427 40.734C82.3427 40.9335 82.3479 41.2222 82.3584 41.6002C82.3794 41.9677 82.4109 42.351 82.4529 42.75C81.9174 42.729 81.3137 42.7185 80.6417 42.7185C79.9697 42.708 79.3712 42.7027 78.8462 42.7027C78.6152 42.7027 78.3159 42.7027 77.9484 42.7027C77.5914 42.7027 77.2029 42.708 76.7829 42.7185C76.3629 42.7185 75.9377 42.7237 75.5072 42.7342C75.0767 42.7342 74.6672 42.7395 74.2787 42.75V42.435C74.6357 42.414 74.9034 42.372 75.0819 42.309C75.2709 42.246 75.3969 42.12 75.4599 41.931C75.5229 41.742 75.5544 41.4585 75.5544 41.0805V33.2685C75.5544 32.88 75.5229 32.5965 75.4599 32.418C75.3969 32.229 75.2709 32.103 75.0819 32.04C74.9034 31.9665 74.6357 31.9245 74.2787 31.914V31.599C74.4992 31.6095 74.7879 31.62 75.1449 31.6305C75.5019 31.641 75.8852 31.6462 76.2947 31.6462C76.6622 31.6462 77.0244 31.641 77.3814 31.6305C77.7489 31.62 78.0534 31.6095 78.2949 31.599ZM91.3972 31.599C91.3552 31.9665 91.3237 32.3235 91.3027 32.67C91.2922 33.0165 91.287 33.279 91.287 33.4575C91.287 33.6465 91.2922 33.8302 91.3027 34.0087C91.3132 34.1767 91.3237 34.3185 91.3342 34.434H90.972C90.909 33.8145 90.8197 33.3262 90.7042 32.9692C90.5887 32.6017 90.3892 32.3445 90.1057 32.1975C89.8327 32.04 89.418 31.9612 88.8615 31.9612H87.5542C87.1972 31.9612 86.9242 31.9927 86.7352 32.0557C86.5567 32.1082 86.436 32.229 86.373 32.418C86.31 32.5965 86.2785 32.88 86.2785 33.2685V41.0805C86.2785 41.4585 86.31 41.742 86.373 41.931C86.436 42.12 86.5567 42.246 86.7352 42.309C86.9242 42.3615 87.1972 42.3877 87.5542 42.3877H88.704C89.3655 42.3877 89.8642 42.2985 90.2002 42.12C90.5467 41.9415 90.7935 41.6527 90.9405 41.2537C91.098 40.8442 91.2135 40.293 91.287 39.6H91.6492C91.6177 39.8835 91.602 40.2615 91.602 40.734C91.602 40.9335 91.6072 41.2222 91.6177 41.6002C91.6387 41.9677 91.6702 42.351 91.7122 42.75C91.1767 42.729 90.573 42.7185 89.901 42.7185C89.229 42.708 88.6305 42.7027 88.1055 42.7027C87.8745 42.7027 87.5752 42.7027 87.2077 42.7027C86.8507 42.7027 86.4622 42.708 86.0422 42.7185C85.6222 42.7185 85.197 42.7237 84.7665 42.7342C84.336 42.7342 83.9265 42.7395 83.538 42.75V42.435C83.895 42.414 84.1627 42.372 84.3412 42.309C84.5302 42.246 84.6562 42.12 84.7192 41.931C84.7822 41.742 84.8137 41.4585 84.8137 41.0805V33.2685C84.8137 32.88 84.7822 32.5965 84.7192 32.418C84.6562 32.229 84.5302 32.103 84.3412 32.04C84.1627 31.9665 83.895 31.9245 83.538 31.914V31.599C83.9265 31.6095 84.336 31.62 84.7665 31.6305C85.197 31.6305 85.6222 31.6357 86.0422 31.6462C86.4622 31.6462 86.8507 31.6462 87.2077 31.6462C87.5752 31.6462 87.8745 31.6462 88.1055 31.6462C88.5885 31.6462 89.1345 31.6462 89.7435 31.6462C90.363 31.6357 90.9142 31.62 91.3972 31.599ZM88.6882 36.9855C88.6882 36.9855 88.6882 37.038 88.6882 37.143C88.6882 37.248 88.6882 37.3005 88.6882 37.3005H85.806C85.806 37.3005 85.806 37.248 85.806 37.143C85.806 37.038 85.806 36.9855 85.806 36.9855H88.6882ZM89.145 34.9065C89.103 35.505 89.082 35.9617 89.082 36.2767C89.0925 36.5917 89.0977 36.8805 89.0977 37.143C89.0977 37.4055 89.103 37.6942 89.1135 38.0092C89.124 38.3242 89.1502 38.781 89.1922 39.3795H88.83C88.788 39.0435 88.7355 38.718 88.6725 38.403C88.62 38.0775 88.494 37.815 88.2945 37.6155C88.1055 37.4055 87.78 37.3005 87.318 37.3005V36.9855C87.6645 36.9855 87.927 36.9172 88.1055 36.7807C88.2945 36.6337 88.431 36.45 88.515 36.2295C88.599 36.009 88.6567 35.7832 88.6882 35.5522C88.7197 35.3107 88.7512 35.0955 88.7827 34.9065H89.145ZM87.8377 27.063C88.0477 27.588 88.3837 28.0972 88.8457 28.5907C89.3182 29.0737 89.859 29.4675 90.468 29.772L90.342 29.9925C89.775 29.793 89.2237 29.5515 88.6882 29.268C88.1527 28.9845 87.717 28.701 87.381 28.4175C87.1185 28.701 86.772 28.9845 86.3415 29.268C85.9215 29.5515 85.491 29.793 85.05 29.9925L84.924 29.772C85.533 29.4675 86.0685 29.0737 86.5305 28.5907C87.003 28.0972 87.3442 27.588 87.5542 27.063H87.8377ZM87.9952 45.6008C87.7432 45.6008 87.528 45.5168 87.3495 45.3488C87.171 45.1913 87.0817 44.9813 87.0817 44.7188C87.0817 44.4773 87.1605 44.2673 87.318 44.0888C87.486 43.9208 87.7117 43.8368 87.9952 43.8368C88.2787 43.8368 88.4992 43.926 88.6567 44.1045C88.8247 44.283 88.9087 44.493 88.9087 44.7345C88.9087 44.997 88.8142 45.207 88.6252 45.3645C88.4467 45.522 88.2367 45.6008 87.9952 45.6008Z" fill="white"/>
<path d="M2.11157 21.25V13.9049H0.522217V12.202H2.11157V4.86829H7.61755C12.4651 4.86829 15.3486 7.88806 15.3486 13.0308V13.0535C15.3486 18.2189 12.4878 21.25 7.61755 21.25H2.11157ZM4.15503 19.4109H7.48132C11.1936 19.4109 13.2598 17.1404 13.2598 13.0762V13.0535C13.2598 8.96655 11.1936 6.7074 7.48132 6.7074H4.15503V12.202H7.10669V13.9049H4.15503V19.4109ZM22.2964 1.24683L24.1241 -0.887451H25.8724L23.636 1.24683H22.2964ZM23.2273 4.07361C21.3541 4.07361 20.1962 3.08594 20.1962 1.42847V1.32629H21.4449V1.3717C21.4449 2.2572 22.0693 2.89294 23.2273 2.89294H23.25C24.408 2.89294 25.0323 2.2572 25.0323 1.3717V1.32629H26.2811V1.42847C26.2811 3.08594 25.1232 4.07361 23.25 4.07361H23.2273ZM16.132 21.25L22.2283 4.86829H24.249L30.334 21.25H28.1884L26.5309 16.5614H19.9351L18.2776 21.25H16.132ZM23.2159 7.32043L20.5594 14.8245H25.9178L23.2614 7.32043H23.2159ZM32.2185 21.25V4.86829H34.262V12.9059H34.3301L41.2778 4.86829H43.8435L37.4407 12.1226L44.4452 21.25H41.8341L36.0103 13.5984L34.262 15.517V21.25H32.2185ZM50.9502 21.25V4.86829H52.9937V19.4109H60.895V21.25H50.9502ZM68.0017 1.24683L69.8295 -0.887451H71.5778L69.3413 1.24683H68.0017ZM68.9326 4.07361C67.0594 4.07361 65.9015 3.08594 65.9015 1.42847V1.32629H67.1503V1.3717C67.1503 2.2572 67.7747 2.89294 68.9326 2.89294H68.9553C70.1133 2.89294 70.7377 2.2572 70.7377 1.3717V1.32629H71.9865V1.42847C71.9865 3.08594 70.8285 4.07361 68.9553 4.07361H68.9326ZM61.8373 21.25L67.9336 4.86829H69.9543L76.0393 21.25H73.8937L72.2362 16.5614H65.6404L63.9829 21.25H61.8373ZM68.9213 7.32043L66.2648 14.8245H71.6232L68.9667 7.32043H68.9213ZM77.9238 21.25V4.86829H79.9673V12.9059H80.0354L86.9832 4.86829H89.5488L83.146 12.1226L90.1505 21.25H87.5394L81.7156 13.5984L79.9673 15.517V21.25H77.9238Z" fill="white"/>
<path d="M11.4472 34.75L6.67426 29.977L1.90128 34.75L6.67426 39.5229L11.4472 34.75Z" fill="white"/>
</g>
<defs>
<clipPath id="clip0_1_18">
<rect width="96" height="50.25" fill="white"/>
</clipPath>
</defs>
</svg>
